<svg width="465" height="412" xmlns="http://www.w3.org/2000/svg" xmlns:xlink="http://www.w3.org/1999/xlink" xml:space="preserve" overflow="hidden"><defs><filter id="fx0" x="-10%" y="-10%" width="120%" height="120%" filterUnits="userSpaceOnUse" primitiveUnits="userSpaceOnUse"><feComponentTransfer color-interpolation-filters="sRGB"><feFuncR type="discrete" tableValues="0 0"/><feFuncG type="discrete" tableValues="0 0"/><feFuncB type="discrete" tableValues="0 0"/><feFuncA type="linear" slope="0.4" intercept="0"/></feComponentTransfer><feGaussianBlur stdDeviation="6.11111 6.11111"/></filter><filter id="fx1" x="-10%" y="-10%" width="120%" height="120%" filterUnits="userSpaceOnUse" primitiveUnits="userSpaceOnUse"><feComponentTransfer color-interpolation-filters="sRGB"><feFuncR type="discrete" tableValues="0 0"/><feFuncG type="discrete" tableValues="0 0"/><feFuncB type="discrete" tableValues="0 0"/><feFuncA type="linear" slope="0.4" intercept="0"/></feComponentTransfer><feGaussianBlur stdDeviation="6.11111 6.11111"/></filter><clipPath id="clip2"><rect x="2319" y="1344" width="465" height="412"/></clipPath><clipPath id="clip3"><rect x="39" y="18" width="192" height="234"/></clipPath><clipPath id="clip4"><rect x="0" y="0" width="269" height="269"/></clipPath><clipPath id="clip5"><rect x="19" y="19" width="230" height="230"/></clipPath><clipPath id="clip6"><rect x="19" y="19" width="230" height="230"/></clipPath><clipPath id="clip7"><rect x="19" y="19" width="230" height="230"/></clipPath><clipPath id="clip8"><rect x="2327" y="1498" width="231" height="229"/></clipPath><clipPath id="clip9"><rect x="2327" y="1498" width="231" height="229"/></clipPath><clipPath id="clip10"><rect x="2327" y="1498" width="231" height="229"/></clipPath><clipPath id="clip11"><rect x="52" y="25" width="245" height="303"/></clipPath><clipPath id="clip12"><rect x="0" y="0" width="349" height="349"/></clipPath><clipPath id="clip13"><rect x="19" y="19" width="310" height="310"/></clipPath><clipPath id="clip14"><rect x="19" y="19" width="310" height="310"/></clipPath><clipPath id="clip15"><rect x="19" y="19" width="310" height="310"/></clipPath><clipPath id="clip16"><rect x="2446" y="1353" width="310" height="310"/></clipPath><clipPath id="clip17"><rect x="2446" y="1353" width="310" height="310"/></clipPath><clipPath id="clip18"><rect x="2446" y="1353" width="310" height="310"/></clipPath><clipPath id="clip19"><rect x="2504" y="1359" width="186" height="187"/></clipPath><clipPath id="clip20"><rect x="2504" y="1359" width="186" height="187"/></clipPath><clipPath id="clip21"><rect x="2504" y="1359" width="186" height="187"/></clipPath></defs><g clip-path="url(#clip2)" transform="translate(-2319 -1344)"><g clip-path="url(#clip3)" filter="url(#fx0)" transform="translate(2318 1488)"><g clip-path="url(#clip4)"><g clip-path="url(#clip5)"><g clip-path="url(#clip6)"><g clip-path="url(#clip7)"><path d="M188.448 154.957C188.186 148.021 184.975 141.527 179.622 137.109 172.144 130.761 161.893 125.299 147.581 119.989 152.609 119.442 157.54 118.214 162.237 116.339 162.237 116.339 156.843 113.112 153.499 99.9036 151.378 91.6047 159.494 70.8564 159.563 56.2505 159.563 44.562 156.242 39.3307 149.973 35.7789 146.352 33.7274 138.008 35.619 138.008 35.619 138.008 35.619 133.695 27.449 119.271 22.9525 107.411 19.7229 94.7528 21.3405 84.0859 27.449 75.1645 33.2121 70.8516 39.5502 70.6441 61.3601 70.4604 81.3451 73.2036 99.0973 71.937 107.465 71.3521 112.098 69.5895 116.503 66.8179 120.261 71.2066 120.628 75.6136 120.723 80.014 120.545 66.4672 125.683 56.6369 130.983 49.4163 137.109 44.0362 141.548 40.8183 148.081 40.5783 155.052L40.5974 196.964 42.7204 198.381C55.8402 207.128 88.8353 209.201 102.411 209.685L108.536 209.917 92.8953 137.639C99.9041 139.767 107.197 140.812 114.521 140.74 121.843 140.812 129.132 139.766 136.138 137.639L120.48 209.94 126.58 209.752C140.573 209.323 174.422 207.343 186.566 198.233L188.474 196.802ZM85.8964 78.7187 85.8964 66.6509C87.0598 66.5808 88.2179 66.4415 89.3648 66.2335 97.3674 65.1793 105.177 62.9821 112.556 59.7094 120.85 55.5396 125.606 53.493 132.488 47.2599 133.397 46.3675 134.858 46.3811 135.75 47.2902 136.088 47.6344 136.31 48.0759 136.384 48.5528 136.932 52.3432 138.359 60.6898 140.258 64.0198 141.114 65.6569 142.08 67.2341 143.149 68.7405L143.149 78.7187C143.132 94.5207 130.326 107.327 114.524 107.344L114.524 107.344C98.7209 107.328 85.9136 94.5216 85.8964 78.7187ZM114.521 131.198C106.336 131.435 98.203 129.826 90.7245 126.491L92.7927 125.642C97.2732 123.814 100.198 119.451 100.187 114.612L100.187 114.075C109.366 117.824 119.648 117.824 128.827 114.075L128.827 114.605C128.815 119.446 131.74 123.81 136.222 125.64L138.299 126.494C130.826 129.825 122.7 131.433 114.521 131.198Z" fill="#C00A35" transform="matrix(1 0 0 1 19.7227 19.7228)"/></g></g></g></g></g><g clip-path="url(#clip8)"><g clip-path="url(#clip9)"><g clip-path="url(#clip10)"><path d="M188.448 154.957C188.186 148.021 184.975 141.527 179.622 137.109 172.144 130.761 161.893 125.299 147.581 119.989 152.609 119.442 157.54 118.214 162.237 116.339 162.237 116.339 156.843 113.112 153.499 99.9036 151.378 91.6047 159.494 70.8564 159.563 56.2505 159.563 44.562 156.242 39.3307 149.973 35.7789 146.352 33.7274 138.008 35.619 138.008 35.619 138.008 35.619 133.695 27.449 119.271 22.9525 107.411 19.7229 94.7528 21.3405 84.0859 27.449 75.1645 33.2121 70.8516 39.5502 70.6441 61.3601 70.4604 81.3451 73.2036 99.0973 71.937 107.465 71.3521 112.098 69.5895 116.503 66.8179 120.261 71.2066 120.628 75.6136 120.723 80.014 120.545 66.4672 125.683 56.6369 130.983 49.4163 137.109 44.0362 141.548 40.8183 148.081 40.5783 155.052L40.5974 196.964 42.7204 198.381C55.8402 207.128 88.8353 209.201 102.411 209.685L108.536 209.917 92.8953 137.639C99.9041 139.767 107.197 140.812 114.521 140.74 121.843 140.812 129.132 139.766 136.138 137.639L120.48 209.94 126.58 209.752C140.573 209.323 174.422 207.343 186.566 198.233L188.474 196.802ZM85.8964 78.7187 85.8964 66.6509C87.0598 66.5808 88.2179 66.4415 89.3648 66.2335 97.3674 65.1793 105.177 62.9821 112.556 59.7094 120.85 55.5396 125.606 53.493 132.488 47.2599 133.397 46.3675 134.858 46.3811 135.75 47.2902 136.088 47.6344 136.31 48.0759 136.384 48.5528 136.932 52.3432 138.359 60.6898 140.258 64.0198 141.114 65.6569 142.08 67.2341 143.149 68.7405L143.149 78.7187C143.132 94.5207 130.326 107.327 114.524 107.344L114.524 107.344C98.7209 107.328 85.9136 94.5216 85.8964 78.7187ZM114.521 131.198C106.336 131.435 98.203 129.826 90.7245 126.491L92.7927 125.642C97.2732 123.814 100.198 119.451 100.187 114.612L100.187 114.075C109.366 117.824 119.648 117.824 128.827 114.075L128.827 114.605C128.815 119.446 131.74 123.81 136.222 125.64L138.299 126.494C130.826 129.825 122.7 131.433 114.521 131.198Z" fill="#C00A35" transform="matrix(1 0 0 1 2328 1498)"/></g></g></g><g clip-path="url(#clip11)" filter="url(#fx1)" transform="translate(2436 1343)"><g clip-path="url(#clip12)"><g clip-path="url(#clip13)"><g clip-path="url(#clip14)"><g clip-path="url(#clip15)"><path d="M274.004 228.813C273.651 219.454 269.318 210.692 262.095 204.73 252.004 196.165 238.173 188.794 218.861 181.629 225.645 180.891 232.298 179.235 238.637 176.704 238.637 176.704 231.359 172.349 226.846 154.527 223.985 143.329 234.935 115.333 235.028 95.6241 235.028 79.8522 230.548 72.7935 222.089 68.0008 217.203 65.2327 205.944 67.7852 205.944 67.7852 205.944 67.7852 200.124 56.7609 180.66 50.6936 164.657 46.3357 147.577 48.5184 133.184 56.7609 121.146 64.5374 115.326 73.0897 115.046 102.519 114.798 129.485 118.5 153.439 116.791 164.731 116.002 170.982 113.623 176.926 109.883 181.996 115.805 182.492 121.752 182.62 127.689 182.379 109.41 189.312 96.1457 196.464 86.4025 204.73 79.143 210.72 74.8009 219.535 74.4771 228.942L74.5028 285.495 77.3675 287.407C95.0706 299.21 139.592 302.007 157.91 302.661L166.176 302.973 145.071 205.445C154.528 208.316 164.369 209.727 174.252 209.629 184.131 209.727 193.967 208.316 203.42 205.445L182.292 303.005 190.523 302.751C209.404 302.171 255.078 299.5 271.465 287.207L274.04 285.276ZM135.627 125.942 135.627 109.658C137.197 109.563 138.759 109.375 140.307 109.095 151.105 107.672 161.643 104.707 171.6 100.291 182.791 94.6649 189.209 91.9033 198.496 83.4927 199.722 82.2885 201.693 82.3069 202.897 83.5335 203.353 83.998 203.652 84.5938 203.752 85.2372 204.492 90.3518 206.417 101.614 208.979 106.108 210.134 108.317 211.437 110.445 212.88 112.478L212.88 125.942C212.857 147.264 195.577 164.543 174.255 164.567L174.255 164.567C152.932 164.545 135.65 147.265 135.627 125.942ZM174.252 196.754C163.207 197.074 152.233 194.903 142.142 190.403L144.932 189.258C150.978 186.79 154.924 180.904 154.91 174.374L154.91 173.65C167.296 178.708 181.17 178.708 193.555 173.65L193.555 174.364C193.538 180.897 197.485 186.786 203.533 189.254L206.336 190.407C196.253 194.902 185.287 197.071 174.252 196.754Z" fill="#C00A35"/></g></g></g></g></g><g clip-path="url(#clip16)"><g clip-path="url(#clip17)"><g clip-path="url(#clip18)"><path d="M2700.28 1562.09C2699.93 1552.73 2695.59 1543.97 2688.37 1538.01 2678.28 1529.44 2664.45 1522.07 2645.14 1514.91 2651.92 1514.17 2658.58 1512.51 2664.91 1509.98 2664.91 1509.98 2657.64 1505.63 2653.12 1487.8 2650.26 1476.61 2661.21 1448.61 2661.31 1428.9 2661.31 1413.13 2656.83 1406.07 2648.37 1401.28 2643.48 1398.51 2632.22 1401.06 2632.22 1401.06 2632.22 1401.06 2626.4 1390.04 2606.94 1383.97 2590.93 1379.61 2573.85 1381.8 2559.46 1390.04 2547.42 1397.81 2541.6 1406.37 2541.32 1435.8 2541.08 1462.76 2544.78 1486.72 2543.07 1498.01 2542.28 1504.26 2539.9 1510.2 2536.16 1515.27 2542.08 1515.77 2548.03 1515.9 2553.97 1515.66 2535.69 1522.59 2522.42 1529.74 2512.68 1538.01 2505.42 1544 2501.08 1552.81 2500.75 1562.22L2500.78 1618.77 2503.64 1620.68C2521.35 1632.49 2565.87 1635.28 2584.19 1635.94L2592.45 1636.25 2571.35 1538.72C2580.81 1541.59 2590.65 1543 2600.53 1542.91 2610.41 1543 2620.24 1541.59 2629.7 1538.72L2608.57 1636.28 2616.8 1636.03C2635.68 1635.45 2681.36 1632.78 2697.74 1620.48L2700.32 1618.55ZM2561.9 1459.22 2561.9 1442.94C2563.47 1442.84 2565.04 1442.65 2566.58 1442.37 2577.38 1440.95 2587.92 1437.98 2597.88 1433.57 2609.07 1427.94 2615.49 1425.18 2624.77 1416.77 2626 1415.57 2627.97 1415.58 2629.17 1416.81 2629.63 1417.28 2629.93 1417.87 2630.03 1418.51 2630.77 1423.63 2632.69 1434.89 2635.26 1439.38 2636.41 1441.59 2637.71 1443.72 2639.16 1445.75L2639.16 1459.22C2639.13 1480.54 2621.85 1497.82 2600.53 1497.84L2600.53 1497.84C2579.21 1497.82 2561.93 1480.54 2561.9 1459.22ZM2600.53 1530.03C2589.48 1530.35 2578.51 1528.18 2568.42 1523.68L2571.21 1522.53C2577.26 1520.07 2581.2 1514.18 2581.19 1507.65L2581.19 1506.93C2593.57 1511.98 2607.45 1511.98 2619.83 1506.93L2619.83 1507.64C2619.82 1514.17 2623.76 1520.06 2629.81 1522.53L2632.61 1523.68C2622.53 1528.18 2611.56 1530.35 2600.53 1530.03Z" fill="#C00A35"/></g></g></g><path d="M2436.86 1497.19 2437.27 1492.46 2438.52 1487.53 2440.47 1482.72 2443.09 1478.03 2446.3 1473.63 2450.02 1469.51 2454.21 1465.65 2458.86 1461.96 2469.21 1455.67 2478.58 1452.63 2481.76 1462.44 2472.97 1465.29 2474.05 1464.79 2464.49 1470.61 2465.02 1470.24 2460.77 1473.61 2461.05 1473.37 2457.18 1476.93 2457.52 1476.59 2454.14 1480.34 2454.48 1479.93 2451.6 1483.86 2451.94 1483.35 2449.62 1487.47 2449.91 1486.88 2448.22 1491.06 2448.44 1490.4 2447.37 1494.59 2447.51 1493.77 2447.14 1498.08ZM2471.81 1443.53 2505.35 1452 2478.45 1473.75Z"/><g clip-path="url(#clip19)"><g clip-path="url(#clip20)"><g clip-path="url(#clip21)"><path d="M92.4595 19.2708C52.0374 19.2698 19.268 52.0374 19.267 92.4595 19.2659 132.882 52.0335 165.651 92.4557 165.652 132.878 165.653 165.647 132.885 165.648 92.4633 165.648 92.4608 165.648 92.4581 165.648 92.4557 165.664 52.0528 132.924 19.2868 92.5212 19.2708 92.5005 19.2708 92.4801 19.2708 92.4595 19.2708ZM100.033 131.959C99.2178 133.865 97.6992 135.383 95.7934 136.199 94.813 136.616 93.758 136.828 92.6927 136.823 90.5658 136.827 88.5244 135.986 87.0174 134.485 86.2905 133.757 85.7091 132.897 85.3042 131.951 84.8851 130.97 84.672 129.913 84.6779 128.847 84.6727 126.719 85.5145 124.676 87.0174 123.169 90.1335 120.045 95.1923 120.039 98.3165 123.155 98.3215 123.16 98.3263 123.164 98.3313 123.169L98.3313 123.169C99.0623 123.903 99.644 124.772 100.044 125.727 100.462 126.714 100.675 127.775 100.671 128.847 100.673 129.916 100.456 130.974 100.033 131.955ZM106.837 98.1193C101.573 101.294 98.3225 106.962 98.2407 113.108L86.6783 113.108C86.7471 102.984 92.0425 93.6134 100.68 88.3317 107.922 83.7924 110.112 74.2426 105.573 67.0014 101.033 59.7602 91.4836 57.5699 84.2424 62.1091 79.7259 64.9404 76.9844 69.8968 76.987 75.2275L65.4245 75.2275C65.4189 60.2953 77.519 48.1859 92.4512 48.1803 107.383 48.1748 119.493 60.2749 119.498 75.2071 119.502 84.5134 114.719 93.1671 106.837 98.1155Z" transform="matrix(1 0 0 1 2505 1360)"/></g></g></g></g></svg>