<svg width="133" height="133" xmlns="http://www.w3.org/2000/svg" xmlns:xlink="http://www.w3.org/1999/xlink" xml:space="preserve" overflow="hidden"><defs><filter id="fx0" x="-10%" y="-10%" width="120%" height="120%" filterUnits="userSpaceOnUse" primitiveUnits="userSpaceOnUse"><feComponentTransfer color-interpolation-filters="sRGB"><feFuncR type="discrete" tableValues="0 0"/><feFuncG type="discrete" tableValues="0 0"/><feFuncB type="discrete" tableValues="0 0"/><feFuncA type="linear" slope="0.4" intercept="0"/></feComponentTransfer><feGaussianBlur stdDeviation="1.77778 1.77778"/></filter><clipPath id="clip1"><rect x="961" y="162" width="133" height="133"/></clipPath><clipPath id="clip2"><rect x="21" y="9" width="93" height="117"/></clipPath><clipPath id="clip3"><rect x="0" y="0" width="135" height="135"/></clipPath><clipPath id="clip4"><rect x="6" y="6" width="122" height="122"/></clipPath><clipPath id="clip5"><rect x="6" y="6" width="122" height="122"/></clipPath><clipPath id="clip6"><rect x="6" y="6" width="122" height="122"/></clipPath><clipPath id="clip7"><rect x="964" y="165" width="121" height="121"/></clipPath><clipPath id="clip8"><rect x="964" y="165" width="121" height="121"/></clipPath><clipPath id="clip9"><rect x="964" y="165" width="121" height="121"/></clipPath></defs><g clip-path="url(#clip1)" transform="translate(-961 -162)"><g clip-path="url(#clip2)" filter="url(#fx0)" transform="translate(960 161)"><g clip-path="url(#clip3)"><g clip-path="url(#clip4)"><g clip-path="url(#clip5)"><g clip-path="url(#clip6)"><path d="M35.818 110.183 35.818 24.4743 67.3284 24.4743 67.3284 50.943 98.8388 50.943 98.8388 110.183 35.818 110.183ZM74.8909 27.6253 90.6461 43.3805 74.8909 43.3805 74.8909 27.6253ZM74.8909 16.9118 28.2555 16.9118 28.2555 117.745 106.401 117.745 106.401 44.6409 74.8909 16.9118Z" fill="#C00A35"/><path d="M43.3805 63.5472 91.2763 63.5472 91.2763 68.5888 43.3805 68.5888Z" fill="#C00A35"/><path d="M43.3805 53.4638 59.7659 53.4638 59.7659 58.5055 43.3805 58.5055Z" fill="#C00A35"/><path d="M43.3805 73.6305 91.2763 73.6305 91.2763 78.6722 43.3805 78.6722Z" fill="#C00A35"/><path d="M43.3805 83.7138 91.2763 83.7138 91.2763 88.7555 43.3805 88.7555Z" fill="#C00A35"/><path d="M43.3805 93.7972 91.2763 93.7972 91.2763 98.8388 43.3805 98.8388Z" fill="#C00A35"/></g></g></g></g></g><g clip-path="url(#clip7)"><g clip-path="url(#clip8)"><g clip-path="url(#clip9)"><path d="M992.99 268.354 992.99 182.646 1024.5 182.646 1024.5 209.115 1056.01 209.115 1056.01 268.354 992.99 268.354ZM1032.06 185.797 1047.82 201.552 1032.06 201.552 1032.06 185.797ZM1032.06 175.083 985.427 175.083 985.427 275.917 1063.57 275.917 1063.57 202.812 1032.06 175.083Z" fill="#C00A35"/><path d="M1000.55 221.719 1048.45 221.719 1048.45 226.76 1000.55 226.76Z" fill="#C00A35"/><path d="M1000.55 211.635 1016.94 211.635 1016.94 216.677 1000.55 216.677Z" fill="#C00A35"/><path d="M1000.55 231.802 1048.45 231.802 1048.45 236.844 1000.55 236.844Z" fill="#C00A35"/><path d="M1000.55 241.885 1048.45 241.885 1048.45 246.927 1000.55 246.927Z" fill="#C00A35"/><path d="M1000.55 251.969 1048.45 251.969 1048.45 257.01 1000.55 257.01Z" fill="#C00A35"/></g></g></g></g></svg>