<svg width="517" height="470" xmlns="http://www.w3.org/2000/svg" xmlns:xlink="http://www.w3.org/1999/xlink" xml:space="preserve" overflow="hidden"><defs><filter id="fx0" x="-10%" y="-10%" width="120%" height="120%" filterUnits="userSpaceOnUse" primitiveUnits="userSpaceOnUse"><feComponentTransfer color-interpolation-filters="sRGB"><feFuncR type="discrete" tableValues="0 0"/><feFuncG type="discrete" tableValues="0 0"/><feFuncB type="discrete" tableValues="0 0"/><feFuncA type="linear" slope="0.4" intercept="0"/></feComponentTransfer><feGaussianBlur stdDeviation="6.11111 6.11111"/></filter><filter id="fx1" x="-10%" y="-10%" width="120%" height="120%" filterUnits="userSpaceOnUse" primitiveUnits="userSpaceOnUse"><feComponentTransfer color-interpolation-filters="sRGB"><feFuncR type="discrete" tableValues="0 0"/><feFuncG type="discrete" tableValues="0 0"/><feFuncB type="discrete" tableValues="0 0"/><feFuncA type="linear" slope="0.4" intercept="0"/></feComponentTransfer><feGaussianBlur stdDeviation="6.11111 6.11111"/></filter><clipPath id="clip2"><rect x="1685" y="557" width="517" height="470"/></clipPath><clipPath id="clip3"><rect x="52" y="52" width="351" height="351"/></clipPath><clipPath id="clip4"><rect x="0" y="0" width="456" height="456"/></clipPath><clipPath id="clip5"><rect x="19" y="19" width="417" height="417"/></clipPath><clipPath id="clip6"><rect x="19" y="19" width="417" height="417"/></clipPath><clipPath id="clip7"><rect x="19" y="19" width="417" height="417"/></clipPath><clipPath id="clip8"><rect x="1756" y="566" width="417" height="417"/></clipPath><clipPath id="clip9"><rect x="1756" y="566" width="417" height="417"/></clipPath><clipPath id="clip10"><rect x="1756" y="566" width="417" height="417"/></clipPath><clipPath id="clip11"><rect x="63" y="11" width="244" height="348"/></clipPath><clipPath id="clip12"><rect x="0" y="0" width="368" height="368"/></clipPath><clipPath id="clip13"><rect x="19" y="19" width="329" height="329"/></clipPath><clipPath id="clip14"><rect x="19" y="19" width="329" height="329"/></clipPath><clipPath id="clip15"><rect x="19" y="19" width="329" height="329"/></clipPath><clipPath id="clip16"><rect x="1694" y="669" width="328" height="329"/></clipPath><clipPath id="clip17"><rect x="1694" y="669" width="328" height="329"/></clipPath><clipPath id="clip18"><rect x="1694" y="669" width="328" height="329"/></clipPath></defs><g clip-path="url(#clip2)" transform="translate(-1685 -557)"><g clip-path="url(#clip3)" filter="url(#fx0)" transform="translate(1747 556)"><g clip-path="url(#clip4)"><g clip-path="url(#clip5)"><g clip-path="url(#clip6)"><g clip-path="url(#clip7)"><path d="M381.123 111.156 344.289 74.3229 227.723 190.89 111.156 74.3229 74.3226 111.156 190.889 227.723 74.3226 344.29 111.156 381.123 227.723 264.556 344.289 381.123 381.123 344.29 264.556 227.723Z" fill="#C00A35"/></g></g></g></g></g><g clip-path="url(#clip8)"><g clip-path="url(#clip9)"><g clip-path="url(#clip10)"><path d="M2118.4 657.433 2081.57 620.6 1965 737.167 1848.43 620.6 1811.6 657.433 1928.17 774 1811.6 890.567 1848.43 927.4 1965 810.833 2081.57 927.4 2118.4 890.567 2001.83 774Z" fill="#C00A35"/></g></g></g><g clip-path="url(#clip11)" filter="url(#fx1)" transform="translate(1684 660)"><g clip-path="url(#clip12)"><g clip-path="url(#clip13)"><g clip-path="url(#clip14)"><g clip-path="url(#clip15)"><path d="M262.668 38.6852C243.401 27.6825 218.865 34.3155 207.766 53.5271 206.32 56.3965 205.08 59.3652 204.055 62.4105L189.589 96.7651 184.02 109.923 178.451 96.7651 163.985 62.4036C162.96 59.3584 161.72 56.3896 160.274 53.5203 149.212 34.2619 124.631 27.6179 105.373 38.6805 86.1143 49.7431 79.4706 74.3234 90.5331 93.5817 101.595 112.839 126.174 119.483 145.432 108.423 149.017 106.327 152.246 103.674 154.999 100.564L160.148 142.989 165.614 153.372 164.74 155.439 121.943 257.618 126.781 296.473 176.548 202.077 184.034 188.007 191.52 202.077 241.263 296.473 246.101 257.618 203.29 155.439 202.415 153.372 207.882 142.989 213.045 100.568C215.797 103.678 219.026 106.33 222.611 108.426 241.789 119.628 266.416 113.163 277.619 93.9859 288.821 74.8085 282.356 50.1807 263.179 38.9783 263.009 38.8794 262.839 38.7816 262.668 38.6852ZM135.708 91.4351C126.078 96.9649 113.789 93.6409 108.259 84.0106 102.729 74.3804 106.053 62.091 115.684 56.5611 125.313 51.0315 137.603 54.3557 143.133 63.9856 148.539 73.6315 145.24 85.8297 135.708 91.4351ZM184.064 150.8C178.502 150.8 173.992 146.29 173.992 140.727 173.992 135.165 178.502 130.655 184.064 130.655 189.627 130.655 194.137 135.165 194.137 140.727 194.137 146.29 189.627 150.8 184.064 150.8ZM259.781 84.0141C254.307 93.6279 242.075 96.9837 232.461 91.5095 232.418 91.4849 232.375 91.46 232.332 91.4351 222.8 85.8297 219.502 73.6301 224.911 63.9856 230.371 54.3157 242.636 50.9034 252.306 56.3637 261.976 61.8238 265.388 74.089 259.928 83.7588 259.879 83.8443 259.831 83.9293 259.781 84.0141Z" fill="#F53966"/><path d="M190.556 306.723 190.556 334.056 176.889 334.056 176.889 306.723Z" fill="#F53966"/><path d="M190.556 265.723 190.556 293.056 176.889 293.056 176.889 265.723Z" fill="#F53966"/><path d="M190.556 224.723 190.556 252.056 176.889 252.056 176.889 224.723Z" fill="#F53966"/></g></g></g></g></g><g clip-path="url(#clip16)"><g clip-path="url(#clip17)"><g clip-path="url(#clip18)"><path d="M1936.95 688.962C1917.68 677.96 1893.14 684.593 1882.04 703.804 1880.6 706.674 1879.36 709.643 1878.33 712.688L1863.87 747.042 1858.3 760.2 1852.73 747.042 1838.26 712.681C1837.24 709.636 1836 706.667 1834.55 703.798 1823.49 684.539 1798.91 677.895 1779.65 688.958 1760.39 700.02 1753.75 724.601 1764.81 743.859 1775.87 763.116 1800.45 769.761 1819.71 758.7 1823.29 756.604 1826.52 753.952 1829.28 750.842L1834.42 793.266 1839.89 803.65 1839.02 805.717 1796.22 907.896 1801.06 946.75 1850.82 852.354 1858.31 838.284 1865.8 852.354 1915.54 946.75 1920.38 907.896 1877.57 805.717 1876.69 803.65 1882.16 793.266 1887.32 750.845C1890.07 753.955 1893.3 756.608 1896.89 758.703 1916.07 769.906 1940.69 763.441 1951.9 744.263 1963.1 725.086 1956.63 700.458 1937.46 689.256 1937.29 689.157 1937.12 689.059 1936.95 688.962ZM1809.99 741.712C1800.36 747.242 1788.07 743.918 1782.54 734.288 1777.01 724.658 1780.33 712.368 1789.96 706.838 1799.59 701.309 1811.88 704.633 1817.41 714.263 1822.82 723.909 1819.52 736.107 1809.99 741.712ZM1858.34 801.077C1852.78 801.077 1848.27 796.567 1848.27 791.005 1848.27 785.442 1852.78 780.932 1858.34 780.932 1863.9 780.932 1868.41 785.442 1868.41 791.005 1868.41 796.567 1863.9 801.077 1858.34 801.077ZM1934.06 734.291C1928.58 743.905 1916.35 747.261 1906.74 741.787 1906.7 741.762 1906.65 741.737 1906.61 741.712 1897.08 736.107 1893.78 723.907 1899.19 714.263 1904.65 704.593 1916.91 701.181 1926.58 706.641 1936.25 712.101 1939.67 724.366 1934.2 734.036 1934.16 734.122 1934.11 734.207 1934.06 734.291Z" fill="#F53966"/><path d="M1864.83 957 1864.83 984.333 1851.17 984.333 1851.17 957Z" fill="#F53966"/><path d="M1864.83 916 1864.83 943.333 1851.17 943.333 1851.17 916Z" fill="#F53966"/><path d="M1864.83 875 1864.83 902.333 1851.17 902.333 1851.17 875Z" fill="#F53966"/></g></g></g></g></svg>