<svg width="133" height="133" xmlns="http://www.w3.org/2000/svg" xmlns:xlink="http://www.w3.org/1999/xlink" xml:space="preserve" overflow="hidden"><defs><filter id="fx0" x="-10%" y="-10%" width="120%" height="120%" filterUnits="userSpaceOnUse" primitiveUnits="userSpaceOnUse"><feComponentTransfer color-interpolation-filters="sRGB"><feFuncR type="discrete" tableValues="0 0"/><feFuncG type="discrete" tableValues="0 0"/><feFuncB type="discrete" tableValues="0 0"/><feFuncA type="linear" slope="0.4" intercept="0"/></feComponentTransfer><feGaussianBlur stdDeviation="1.77778 1.77778"/></filter><clipPath id="clip1"><rect x="506" y="399" width="133" height="133"/></clipPath><clipPath id="clip2"><rect x="7" y="9" width="122" height="117"/></clipPath><clipPath id="clip3"><rect x="0" y="0" width="135" height="135"/></clipPath><clipPath id="clip4"><rect x="6" y="6" width="122" height="122"/></clipPath><clipPath id="clip5"><rect x="6" y="6" width="122" height="122"/></clipPath><clipPath id="clip6"><rect x="6" y="6" width="122" height="122"/></clipPath><clipPath id="clip7"><rect x="509" y="402" width="121" height="121"/></clipPath><clipPath id="clip8"><rect x="509" y="402" width="121" height="121"/></clipPath><clipPath id="clip9"><rect x="509" y="402" width="121" height="121"/></clipPath></defs><g clip-path="url(#clip1)" transform="translate(-506 -399)"><g clip-path="url(#clip2)" filter="url(#fx0)" transform="translate(505 398)"><g clip-path="url(#clip3)"><g clip-path="url(#clip4)"><g clip-path="url(#clip5)"><g clip-path="url(#clip6)"><path d="M120.266 38.3388C120.265 37.0854 119.644 35.9137 118.606 35.2105L101.386 18.0171C99.9203 16.5298 97.5261 16.5124 96.0388 17.9782 94.5514 19.4441 94.534 21.8382 95.9999 23.3256 96.0143 23.3401 96.0286 23.3545 96.0432 23.3689L107.253 34.5576 100.099 34.5576C86.1887 34.5713 73.489 42.4715 67.3284 54.9436 61.168 42.4714 48.4683 34.5711 34.5576 34.5576L27.411 34.5576 38.6212 23.3689C40.111 21.9054 40.1323 19.5114 38.6689 18.0216 37.2055 16.5318 34.8114 16.5104 33.3216 17.9739 33.307 17.9882 33.2926 18.0026 33.2783 18.0171L16.0534 35.2105C15.0138 35.9122 14.3908 37.0846 14.3909 38.3388 14.3909 38.3552 14.3909 38.3691 14.3909 38.3855 14.3909 38.4019 14.3909 38.417 14.3909 38.4321 14.3901 39.4374 14.7897 40.4016 15.5014 41.1118L33.1006 58.7059C34.589 60.1706 36.9831 60.1515 38.4479 58.6631 39.8958 57.1917 39.8961 54.8309 38.4485 53.3592L27.2094 42.1201 34.5576 42.1201C50.5606 42.1381 63.5292 55.1067 63.5472 71.1097L63.5472 113.964C63.5472 116.052 65.2401 117.745 67.3284 117.745L67.3284 117.745C69.4168 117.745 71.1097 116.052 71.1097 113.964L71.1097 71.1097C71.1271 55.1064 84.096 42.1375 100.099 42.1201L107.45 42.1201 96.2172 53.3592C94.7288 54.824 94.7095 57.2181 96.1742 58.7065 97.6391 60.195 100.033 60.2143 101.522 58.7495 101.536 58.735 101.551 58.7205 101.565 58.7059L119.163 41.1118C119.872 40.4004 120.269 39.4363 120.266 38.4321 120.266 38.417 120.266 38.4006 120.266 38.3855 120.266 38.3704 120.266 38.3552 120.266 38.3388Z" fill="#C00A35"/></g></g></g></g></g><g clip-path="url(#clip7)"><g clip-path="url(#clip8)"><g clip-path="url(#clip9)"><path d="M622.438 433.51C622.437 432.257 621.815 431.085 620.778 430.382L603.558 413.189C602.092 411.701 599.698 411.684 598.21 413.15 596.723 414.616 596.706 417.01 598.171 418.497 598.186 418.512 598.2 418.526 598.215 418.54L609.425 429.729 602.271 429.729C588.36 429.743 575.661 437.643 569.5 450.115 563.34 437.643 550.64 429.743 536.729 429.729L529.583 429.729 540.793 418.54C542.283 417.077 542.304 414.683 540.841 413.193 539.377 411.703 536.983 411.682 535.493 413.145 535.479 413.16 535.464 413.174 535.45 413.189L518.225 430.382C517.185 431.084 516.562 432.256 516.562 433.51 516.562 433.527 516.562 433.541 516.562 433.557 516.562 433.573 516.562 433.589 516.562 433.604 516.562 434.609 516.961 435.573 517.673 436.283L535.272 453.878C536.761 455.342 539.155 455.323 540.619 453.835 542.067 452.363 542.068 450.002 540.62 448.531L529.381 437.292 536.729 437.292C552.732 437.31 565.701 450.278 565.719 466.281L565.719 509.135C565.719 511.224 567.412 512.917 569.5 512.917L569.5 512.917C571.588 512.917 573.281 511.224 573.281 509.135L573.281 466.281C573.299 450.278 586.268 437.309 602.271 437.292L609.622 437.292 598.389 448.531C596.9 449.996 596.881 452.39 598.346 453.878 599.811 455.367 602.205 455.386 603.693 453.921 603.708 453.907 603.722 453.892 603.737 453.878L621.335 436.283C622.043 435.572 622.44 434.608 622.438 433.604 622.438 433.589 622.438 433.572 622.438 433.557 622.438 433.542 622.438 433.527 622.438 433.51Z" fill="#C00A35"/></g></g></g></g></svg>