<svg width="133" height="133" xmlns="http://www.w3.org/2000/svg" xmlns:xlink="http://www.w3.org/1999/xlink" xml:space="preserve" overflow="hidden"><defs><filter id="fx0" x="-10%" y="-10%" width="120%" height="120%" filterUnits="userSpaceOnUse" primitiveUnits="userSpaceOnUse"><feComponentTransfer color-interpolation-filters="sRGB"><feFuncR type="discrete" tableValues="0 0"/><feFuncG type="discrete" tableValues="0 0"/><feFuncB type="discrete" tableValues="0 0"/><feFuncA type="linear" slope="0.4" intercept="0"/></feComponentTransfer><feGaussianBlur stdDeviation="1.77778 1.77778"/></filter><clipPath id="clip1"><rect x="172" y="399" width="133" height="133"/></clipPath><clipPath id="clip2"><rect x="7" y="25" width="122" height="85"/></clipPath><clipPath id="clip3"><rect x="0" y="0" width="135" height="135"/></clipPath><clipPath id="clip4"><rect x="6" y="6" width="122" height="122"/></clipPath><clipPath id="clip5"><rect x="6" y="6" width="122" height="122"/></clipPath><clipPath id="clip6"><rect x="6" y="6" width="122" height="122"/></clipPath><clipPath id="clip7"><rect x="175" y="402" width="121" height="121"/></clipPath><clipPath id="clip8"><rect x="175" y="402" width="121" height="121"/></clipPath><clipPath id="clip9"><rect x="175" y="402" width="121" height="121"/></clipPath></defs><g clip-path="url(#clip1)" transform="translate(-172 -399)"><g clip-path="url(#clip2)" filter="url(#fx0)" transform="translate(171 398)"><g clip-path="url(#clip3)"><g clip-path="url(#clip4)"><g clip-path="url(#clip5)"><g clip-path="url(#clip6)"><path d="M98.8388 66.068C96.6961 66.068 95.0576 64.4295 95.0576 62.2868 95.0576 60.1441 96.6961 58.5055 98.8388 58.5055 100.982 58.5055 102.62 60.1441 102.62 62.2868 102.62 64.4295 100.982 66.068 98.8388 66.068ZM91.2763 73.6305C89.1336 73.6305 87.4951 71.992 87.4951 69.8493 87.4951 67.7066 89.1336 66.068 91.2763 66.068 93.4191 66.068 95.0576 67.7066 95.0576 69.8493 95.0576 71.992 93.4191 73.6305 91.2763 73.6305ZM83.7138 66.068C81.5711 66.068 79.9326 64.4295 79.9326 62.2868 79.9326 60.1441 81.5711 58.5055 83.7138 58.5055 85.8566 58.5055 87.4951 60.1441 87.4951 62.2868 87.4951 64.4295 85.8566 66.068 83.7138 66.068ZM91.2763 50.943C93.4191 50.943 95.0576 52.5816 95.0576 54.7243 95.0576 56.867 93.4191 58.5055 91.2763 58.5055 89.1336 58.5055 87.4951 56.867 87.4951 54.7243 87.4951 52.5816 89.1336 50.943 91.2763 50.943ZM50.943 64.8076 45.9013 64.8076 45.9013 69.8493C45.9013 71.2357 44.767 72.3701 43.3805 72.3701 41.9941 72.3701 40.8597 71.2357 40.8597 69.8493L40.8597 64.8076 35.818 64.8076C34.4316 64.8076 33.2972 63.6732 33.2972 62.2868 33.2972 60.9003 34.4316 59.7659 35.818 59.7659L40.8597 59.7659 40.8597 54.7243C40.8597 53.3378 41.9941 52.2034 43.3805 52.2034 44.767 52.2034 45.9013 53.3378 45.9013 54.7243L45.9013 59.7659 50.943 59.7659C52.3295 59.7659 53.4638 60.9003 53.4638 62.2868 53.4638 63.6732 52.3295 64.8076 50.943 64.8076ZM96.318 32.0368C81.4451 32.0368 89.0076 39.5993 67.3284 39.5993 45.6493 39.5993 53.2118 32.0368 38.3388 32.0368 22.4576 32.0368 2.29093 102.62 23.2138 102.62 42.4982 102.62 35.1878 84.9743 67.3284 84.9743 99.4691 84.9743 92.1586 102.62 111.443 102.62 132.366 102.62 112.199 32.0368 96.318 32.0368Z" fill="#C00A35"/></g></g></g></g></g><g clip-path="url(#clip7)"><g clip-path="url(#clip8)"><g clip-path="url(#clip9)"><path d="M267.01 461.24C264.868 461.24 263.229 459.601 263.229 457.458 263.229 455.316 264.868 453.677 267.01 453.677 269.153 453.677 270.792 455.316 270.792 457.458 270.792 459.601 269.153 461.24 267.01 461.24ZM259.448 468.802C257.305 468.802 255.667 467.164 255.667 465.021 255.667 462.878 257.305 461.24 259.448 461.24 261.591 461.24 263.229 462.878 263.229 465.021 263.229 467.164 261.591 468.802 259.448 468.802ZM251.885 461.24C249.743 461.24 248.104 459.601 248.104 457.458 248.104 455.316 249.743 453.677 251.885 453.677 254.028 453.677 255.667 455.316 255.667 457.458 255.667 459.601 254.028 461.24 251.885 461.24ZM259.448 446.115C261.591 446.115 263.229 447.753 263.229 449.896 263.229 452.039 261.591 453.677 259.448 453.677 257.305 453.677 255.667 452.039 255.667 449.896 255.667 447.753 257.305 446.115 259.448 446.115ZM219.115 459.979 214.073 459.979 214.073 465.021C214.073 466.407 212.939 467.542 211.552 467.542 210.166 467.542 209.031 466.407 209.031 465.021L209.031 459.979 203.99 459.979C202.603 459.979 201.469 458.845 201.469 457.458 201.469 456.072 202.603 454.938 203.99 454.938L209.031 454.938 209.031 449.896C209.031 448.509 210.166 447.375 211.552 447.375 212.939 447.375 214.073 448.509 214.073 449.896L214.073 454.938 219.115 454.938C220.501 454.938 221.635 456.072 221.635 457.458 221.635 458.845 220.501 459.979 219.115 459.979ZM264.49 427.208C249.617 427.208 257.179 434.771 235.5 434.771 213.821 434.771 221.383 427.208 206.51 427.208 190.629 427.208 170.462 497.792 191.385 497.792 210.67 497.792 203.359 480.146 235.5 480.146 267.641 480.146 260.33 497.792 279.615 497.792 300.537 497.792 280.371 427.208 264.49 427.208Z" fill="#C00A35"/></g></g></g></g></svg>