<svg width="133" height="134" xmlns="http://www.w3.org/2000/svg" xmlns:xlink="http://www.w3.org/1999/xlink" xml:space="preserve" overflow="hidden"><defs><filter id="fx0" x="-10%" y="-10%" width="120%" height="120%" filterUnits="userSpaceOnUse" primitiveUnits="userSpaceOnUse"><feComponentTransfer color-interpolation-filters="sRGB"><feFuncR type="discrete" tableValues="0 0"/><feFuncG type="discrete" tableValues="0 0"/><feFuncB type="discrete" tableValues="0 0"/><feFuncA type="linear" slope="0.4" intercept="0"/></feComponentTransfer><feGaussianBlur stdDeviation="1.77778 1.77778"/></filter><clipPath id="clip1"><rect x="961" y="390" width="133" height="134"/></clipPath><clipPath id="clip2"><rect x="17" y="9" width="101" height="120"/></clipPath><clipPath id="clip3"><rect x="0" y="0" width="135" height="136"/></clipPath><clipPath id="clip4"><rect x="6" y="6" width="122" height="123"/></clipPath><clipPath id="clip5"><rect x="6" y="6" width="122" height="123"/></clipPath><clipPath id="clip6"><rect x="6" y="6" width="122" height="123"/></clipPath><clipPath id="clip7"><rect x="964" y="393" width="121" height="122"/></clipPath><clipPath id="clip8"><rect x="964" y="393" width="121" height="122"/></clipPath><clipPath id="clip9"><rect x="964" y="393" width="121" height="122"/></clipPath></defs><g clip-path="url(#clip1)" transform="translate(-961 -390)"><g clip-path="url(#clip2)" filter="url(#fx0)" transform="translate(960 389)"><g clip-path="url(#clip3)"><g clip-path="url(#clip4)"><g clip-path="url(#clip5)"><g clip-path="url(#clip6)"><path d="M99.0019 28.7892C85.6335 27.7242 73.1677 21.6243 64.1237 11.7219 62.4189 9.74597 59.4351 9.5262 57.4591 11.231 57.2837 11.3824 57.1197 11.5464 56.9683 11.7219 47.9243 21.6243 35.4585 27.7242 22.0901 28.7892 19.6059 29.022 17.7128 31.1165 17.7315 33.6115L17.7315 45.7783C17.7315 72.2294 34.5543 96.4257 57.9124 111.398 59.5167 112.429 61.5753 112.429 63.1796 111.398 86.5377 96.4219 103.36 72.2294 103.36 45.7783L103.36 33.6115C103.379 31.1165 101.486 29.022 99.0019 28.7892ZM95.1678 45.7783C95.1678 66.8273 82.6279 88.0615 61.623 102.593L60.5466 103.338 59.4715 102.593C38.4654 88.0603 25.923 66.821 25.923 45.7783L25.923 36.639 27.5162 36.387C39.3856 34.5101 50.4333 29.1592 59.2648 21.0099L60.5454 19.8301 61.8272 21.0099C70.6583 29.1592 81.7055 34.5101 93.5746 36.387L95.1678 36.639Z" fill="#C00A35" transform="matrix(1 0 0 1.00826 6.82843 6.82843)"/><path d="M60.5454 24.9411C51.7942 32.5948 41.1389 37.7437 29.7042 39.8443L29.7042 45.7783C29.7042 65.2228 41.2081 84.9307 60.5466 98.7284 79.8827 84.9332 91.3865 65.224 91.3865 45.7783L91.3865 39.8443C79.9519 37.7437 69.2966 32.5948 60.5454 24.9411ZM57.3086 74.1541 44.5633 61.4075 48.8941 57.0767 57.3086 65.4912 74.541 48.2588 78.8718 52.5909Z" fill="#C00A35" transform="matrix(1 0 0 1.00826 6.82843 6.82843)"/></g></g></g></g></g><g clip-path="url(#clip7)"><g clip-path="url(#clip8)"><g clip-path="url(#clip9)"><path d="M99.0019 28.7892C85.6335 27.7242 73.1677 21.6243 64.1237 11.7219 62.4189 9.74597 59.4351 9.5262 57.4591 11.231 57.2837 11.3824 57.1197 11.5464 56.9683 11.7219 47.9243 21.6243 35.4585 27.7242 22.0901 28.7892 19.6059 29.022 17.7128 31.1165 17.7315 33.6115L17.7315 45.7783C17.7315 72.2294 34.5543 96.4257 57.9124 111.398 59.5167 112.429 61.5753 112.429 63.1796 111.398 86.5377 96.4219 103.36 72.2294 103.36 45.7783L103.36 33.6115C103.379 31.1165 101.486 29.022 99.0019 28.7892ZM95.1678 45.7783C95.1678 66.8273 82.6279 88.0615 61.623 102.593L60.5466 103.338 59.4715 102.593C38.4654 88.0603 25.923 66.821 25.923 45.7783L25.923 36.639 27.5162 36.387C39.3856 34.5101 50.4333 29.1592 59.2648 21.0099L60.5454 19.8301 61.8272 21.0099C70.6583 29.1592 81.7055 34.5101 93.5746 36.387L95.1678 36.639Z" fill="#C00A35" transform="matrix(1 0 0 1.00826 964 393)"/><path d="M60.5454 24.9411C51.7942 32.5948 41.1389 37.7437 29.7042 39.8443L29.7042 45.7783C29.7042 65.2228 41.2081 84.9307 60.5466 98.7284 79.8827 84.9332 91.3865 65.224 91.3865 45.7783L91.3865 39.8443C79.9519 37.7437 69.2966 32.5948 60.5454 24.9411ZM57.3086 74.1541 44.5633 61.4075 48.8941 57.0767 57.3086 65.4912 74.541 48.2588 78.8718 52.5909Z" fill="#C00A35" transform="matrix(1 0 0 1.00826 964 393)"/></g></g></g></g></svg>