<svg width="133" height="133" xmlns="http://www.w3.org/2000/svg" xmlns:xlink="http://www.w3.org/1999/xlink" xml:space="preserve" overflow="hidden"><defs><filter id="fx0" x="-10%" y="-10%" width="120%" height="120%" filterUnits="userSpaceOnUse" primitiveUnits="userSpaceOnUse"><feComponentTransfer color-interpolation-filters="sRGB"><feFuncR type="discrete" tableValues="0 0"/><feFuncG type="discrete" tableValues="0 0"/><feFuncB type="discrete" tableValues="0 0"/><feFuncA type="linear" slope="0.4" intercept="0"/></feComponentTransfer><feGaussianBlur stdDeviation="1.77778 1.77778"/></filter><clipPath id="clip1"><rect x="679" y="162" width="133" height="133"/></clipPath><clipPath id="clip2"><rect x="13" y="13" width="109" height="107"/></clipPath><clipPath id="clip3"><rect x="0" y="0" width="135" height="135"/></clipPath><clipPath id="clip4"><rect x="6" y="6" width="122" height="122"/></clipPath><clipPath id="clip5"><rect x="6" y="6" width="122" height="122"/></clipPath><clipPath id="clip6"><rect x="6" y="6" width="122" height="122"/></clipPath><clipPath id="clip7"><rect x="682" y="165" width="121" height="121"/></clipPath><clipPath id="clip8"><rect x="682" y="165" width="121" height="121"/></clipPath><clipPath id="clip9"><rect x="682" y="165" width="121" height="121"/></clipPath></defs><g clip-path="url(#clip1)" transform="translate(-679 -162)"><g clip-path="url(#clip2)" filter="url(#fx0)" transform="translate(678 161)"><g clip-path="url(#clip3)"><g clip-path="url(#clip4)"><g clip-path="url(#clip5)"><g clip-path="url(#clip6)"><path d="M70.5299 54.6108C64.9062 52.7939 58.8743 55.8801 57.0574 61.5039 56.7127 62.5711 56.5378 63.686 56.5393 64.8076 56.5357 65.9205 56.7102 67.0268 57.056 68.0847Z" fill="#C00A35"/><path d="M40.5194 84.6213 46.0526 79.0881C39.7581 75.536 33.9676 71.1571 28.8353 66.068 31.5865 63.0299 34.5339 60.1753 37.6582 57.5224 41.4657 54.2553 45.6256 51.4229 50.0607 49.0776 42.8993 56.8757 41.9244 68.5325 47.6911 77.4118L51.0691 74.0338C45.9746 65.0872 49.0974 53.7046 58.0439 48.6101 63.7712 45.3489 70.7946 45.3541 76.5169 48.6238L84.4323 40.7084C79.0397 38.2272 73.1881 36.9006 67.2528 36.8137 46.3929 36.8137 28.6084 54.9385 21.8778 62.8413 20.1485 64.8832 20.2244 67.897 22.0543 69.8493 27.5445 75.5511 33.7513 80.5167 40.5194 84.6213Z" fill="#C00A35"/><path d="M94.6921 46.4937 114.039 27.1463 108.695 21.8022 22.987 107.511 28.3311 112.855 51.359 89.8269C56.4426 91.737 61.8223 92.7396 67.2528 92.7888 87.911 92.7888 105.544 76.9958 112.451 69.8493 114.298 67.9141 114.406 64.9041 112.703 62.8413 107.418 56.6499 101.365 51.1565 94.6921 46.4937ZM67.2528 83.4618C64.5568 83.4671 61.8928 82.8774 59.4508 81.735L65.7529 75.4329C66.2414 75.503 66.7341 75.5409 67.2276 75.5463 73.1416 75.5394 77.9342 70.7468 77.9411 64.8328 77.9352 64.3394 77.8973 63.8468 77.8277 63.3581L84.1298 57.056C88.4596 66.389 84.4037 77.465 75.0707 81.7949 72.6054 82.9384 69.92 83.5289 67.2024 83.5248ZM83.4366 81.5711C91.0346 74.2717 92.7537 62.7662 87.6211 53.5647L89.2597 51.9261C95.3015 55.9474 100.807 60.7207 105.645 66.131 100.994 70.6433 93.0283 77.4118 83.4366 81.5711Z" fill="#C00A35"/></g></g></g></g></g><g clip-path="url(#clip7)"><g clip-path="url(#clip8)"><g clip-path="url(#clip9)"><path d="M745.701 212.782C740.078 210.965 734.046 214.052 732.229 219.675 731.884 220.743 731.709 221.858 731.711 222.979 731.707 224.092 731.882 225.198 732.228 226.256Z" fill="#C00A35"/><path d="M715.691 242.793 721.224 237.26C714.93 233.708 709.139 229.329 704.007 224.24 706.758 221.201 709.705 218.347 712.83 215.694 716.637 212.427 720.797 209.594 725.232 207.249 718.071 215.047 717.096 226.704 722.863 235.583L726.241 232.205C721.146 223.259 724.269 211.876 733.216 206.782 738.943 203.52 745.966 203.526 751.688 206.795L759.604 198.88C754.211 196.399 748.36 195.072 742.424 194.985 721.564 194.985 703.78 213.11 697.049 221.013 695.32 223.055 695.396 226.069 697.226 228.021 702.716 233.723 708.923 238.688 715.691 242.793Z" fill="#C00A35"/><path d="M769.864 204.665 789.211 185.318 783.867 179.974 698.159 265.682 703.503 271.026 726.531 247.998C731.614 249.909 736.994 250.911 742.424 250.96 763.083 250.96 780.716 235.167 787.623 228.021 789.469 226.086 789.578 223.076 787.875 221.013 782.589 214.822 776.537 209.328 769.864 204.665ZM742.424 241.633C739.728 241.639 737.064 241.049 734.622 239.907L740.924 233.604C741.413 233.675 741.906 233.712 742.399 233.718 748.313 233.711 753.106 228.918 753.113 223.004 753.107 222.511 753.069 222.018 752.999 221.53L759.301 215.228C763.631 224.561 759.575 235.637 750.242 239.966 747.777 241.11 745.092 241.701 742.374 241.696ZM758.608 239.743C766.206 232.443 767.925 220.938 762.793 211.736L764.431 210.098C770.473 214.119 775.979 218.892 780.817 224.303 776.166 228.815 768.2 235.583 758.608 239.743Z" fill="#C00A35"/></g></g></g></g></svg>