<svg width="133" height="133" xmlns="http://www.w3.org/2000/svg" xmlns:xlink="http://www.w3.org/1999/xlink" xml:space="preserve" overflow="hidden"><defs><filter id="fx0" x="-10%" y="-10%" width="120%" height="120%" filterUnits="userSpaceOnUse" primitiveUnits="userSpaceOnUse"><feComponentTransfer color-interpolation-filters="sRGB"><feFuncR type="discrete" tableValues="0 0"/><feFuncG type="discrete" tableValues="0 0"/><feFuncB type="discrete" tableValues="0 0"/><feFuncA type="linear" slope="0.4" intercept="0"/></feComponentTransfer><feGaussianBlur stdDeviation="1.77778 1.77778"/></filter><clipPath id="clip1"><rect x="172" y="162" width="133" height="133"/></clipPath><clipPath id="clip2"><rect x="11" y="11" width="113" height="113"/></clipPath><clipPath id="clip3"><rect x="0" y="0" width="135" height="135"/></clipPath><clipPath id="clip4"><rect x="6" y="6" width="122" height="122"/></clipPath><clipPath id="clip5"><rect x="6" y="6" width="122" height="122"/></clipPath><clipPath id="clip6"><rect x="6" y="6" width="122" height="122"/></clipPath><clipPath id="clip7"><rect x="175" y="165" width="121" height="121"/></clipPath><clipPath id="clip8"><rect x="175" y="165" width="121" height="121"/></clipPath><clipPath id="clip9"><rect x="175" y="165" width="121" height="121"/></clipPath></defs><g clip-path="url(#clip1)" transform="translate(-172 -162)"><g clip-path="url(#clip2)" filter="url(#fx0)" transform="translate(171 161)"><g clip-path="url(#clip3)"><g clip-path="url(#clip4)"><g clip-path="url(#clip5)"><g clip-path="url(#clip6)"><path d="M67.3284 19.4326C40.8597 19.4326 19.4326 40.8597 19.4326 67.3284 19.4326 93.7972 40.8597 115.224 67.3284 115.224 93.7972 115.224 115.224 93.7972 115.224 67.3284 115.224 40.8597 93.7972 19.4326 67.3284 19.4326ZM64.8076 32.0368C68.3368 32.0368 71.1097 34.8097 71.1097 38.3388 71.1097 41.868 68.3368 44.6409 64.8076 44.6409 61.2784 44.6409 58.5055 41.868 58.5055 38.3388 58.5055 34.8097 61.2784 32.0368 64.8076 32.0368ZM79.9326 102.62 54.7243 102.62 54.7243 95.0576 63.5472 95.0576 63.5472 57.2451 55.9847 57.2451 55.9847 49.6826 71.1097 49.6826 71.1097 57.2451 71.1097 95.0576 79.9326 95.0576 79.9326 102.62Z" fill="#C00A35"/></g></g></g></g></g><g clip-path="url(#clip7)"><g clip-path="url(#clip8)"><g clip-path="url(#clip9)"><path d="M235.5 177.604C209.031 177.604 187.604 199.031 187.604 225.5 187.604 251.969 209.031 273.396 235.5 273.396 261.969 273.396 283.396 251.969 283.396 225.5 283.396 199.031 261.969 177.604 235.5 177.604ZM232.979 190.208C236.508 190.208 239.281 192.981 239.281 196.51 239.281 200.04 236.508 202.812 232.979 202.812 229.45 202.812 226.677 200.04 226.677 196.51 226.677 192.981 229.45 190.208 232.979 190.208ZM248.104 260.792 222.896 260.792 222.896 253.229 231.719 253.229 231.719 215.417 224.156 215.417 224.156 207.854 239.281 207.854 239.281 215.417 239.281 253.229 248.104 253.229 248.104 260.792Z" fill="#C00A35"/></g></g></g></g></svg>